<?xml version="1.0" encoding="utf-8" standalone="no"?>
<!DOCTYPE svg PUBLIC "-//W3C//DTD SVG 1.1//EN"
  "http://www.w3.org/Graphics/SVG/1.1/DTD/svg11.dtd">
<svg xmlns:xlink="http://www.w3.org/1999/xlink" width="720pt" height="432pt" viewBox="0 0 720 432" xmlns="http://www.w3.org/2000/svg" version="1.1">
 <metadata>
  <rdf:RDF xmlns:dc="http://purl.org/dc/elements/1.1/" xmlns:cc="http://creativecommons.org/ns#" xmlns:rdf="http://www.w3.org/1999/02/22-rdf-syntax-ns#">
   <cc:Work>
    <dc:type rdf:resource="http://purl.org/dc/dcmitype/StillImage"/>
    <dc:date>2024-02-02T13:45:54.754678</dc:date>
    <dc:format>image/svg+xml</dc:format>
    <dc:creator>
     <cc:Agent>
      <dc:title>Matplotlib v3.7.3, https://matplotlib.org/</dc:title>
     </cc:Agent>
    </dc:creator>
   </cc:Work>
  </rdf:RDF>
 </metadata>
 <defs>
  <style type="text/css">*{stroke-linejoin: round; stroke-linecap: butt}</style>
 </defs>
 <g id="figure_1">
  <g id="patch_1">
   <path d="M 0 432 
L 720 432 
L 720 0 
L 0 0 
z
" style="fill: #ffffff"/>
  </g>
  <g id="axes_1">
   <g id="patch_2">
    <path d="M 44.57 271.15 
L 709.2 271.15 
L 709.2 26.88 
L 44.57 26.88 
z
" style="fill: #ffffff"/>
   </g>
   <g id="patch_3">
    <path d="M 63.031944 271.15 
L 99.955833 271.15 
L 99.955833 38.511905 
L 63.031944 38.511905 
z
" clip-path="url(#p1e9c1371fd)" style="fill: #87ceeb"/>
   </g>
   <g id="patch_4">
    <path d="M 136.879722 271.15 
L 173.803611 271.15 
L 173.803611 110.092857 
L 136.879722 110.092857 
z
" clip-path="url(#p1e9c1371fd)" style="fill: #87ceeb"/>
   </g>
   <g id="patch_5">
    <path d="M 210.7275 271.15 
L 247.651389 271.15 
L 247.651389 136.935714 
L 210.7275 136.935714 
z
" clip-path="url(#p1e9c1371fd)" style="fill: #87ceeb"/>
   </g>
   <g id="patch_6">
    <path d="M 284.575278 271.15 
L 321.499167 271.15 
L 321.499167 154.830952 
L 284.575278 154.830952 
z
" clip-path="url(#p1e9c1371fd)" style="fill: #87ceeb"/>
   </g>
   <g id="patch_7">
    <path d="M 358.423056 271.15 
L 395.346944 271.15 
L 395.346944 154.830952 
L 358.423056 154.830952 
z
" clip-path="url(#p1e9c1371fd)" style="fill: #87ceeb"/>
   </g>
   <g id="patch_8">
    <path d="M 432.270833 271.15 
L 469.194722 271.15 
L 469.194722 163.778571 
L 432.270833 163.778571 
z
" clip-path="url(#p1e9c1371fd)" style="fill: #87ceeb"/>
   </g>
   <g id="patch_9">
    <path d="M 506.118611 271.15 
L 543.0425 271.15 
L 543.0425 163.778571 
L 506.118611 163.778571 
z
" clip-path="url(#p1e9c1371fd)" style="fill: #87ceeb"/>
   </g>
   <g id="patch_10">
    <path d="M 579.966389 271.15 
L 616.890278 271.15 
L 616.890278 190.621429 
L 579.966389 190.621429 
z
" clip-path="url(#p1e9c1371fd)" style="fill: #87ceeb"/>
   </g>
   <g id="patch_11">
    <path d="M 653.814167 271.15 
L 690.738056 271.15 
L 690.738056 190.621429 
L 653.814167 190.621429 
z
" clip-path="url(#p1e9c1371fd)" style="fill: #87ceeb"/>
   </g>
   <g id="matplotlib.axis_1">
    <g id="xtick_1">
     <g id="line2d_1">
      <defs>
       <path id="m8ed78df298" d="M 0 0 
L 0 3.5 
" style="stroke: #000000; stroke-width: 0.8"/>
      </defs>
      <g>
       <use xlink:href="#m8ed78df298" x="81.493889" y="271.15" style="stroke: #000000; stroke-width: 0.8"/>
      </g>
     </g>
     <g id="text_1">
      <!-- Geschichte Museum Buch -->
      <g transform="translate(84.253264 407.58125) rotate(-90) scale(0.1 -0.1)">
       <defs>
        <path id="DejaVuSans-47" d="M 3809 666 
L 3809 1919 
L 2778 1919 
L 2778 2438 
L 4434 2438 
L 4434 434 
Q 4069 175 3628 42 
Q 3188 -91 2688 -91 
Q 1594 -91 976 548 
Q 359 1188 359 2328 
Q 359 3472 976 4111 
Q 1594 4750 2688 4750 
Q 3144 4750 3555 4637 
Q 3966 4525 4313 4306 
L 4313 3634 
Q 3963 3931 3569 4081 
Q 3175 4231 2741 4231 
Q 1884 4231 1454 3753 
Q 1025 3275 1025 2328 
Q 1025 1384 1454 906 
Q 1884 428 2741 428 
Q 3075 428 3337 486 
Q 3600 544 3809 666 
z
" transform="scale(0.015625)"/>
        <path id="DejaVuSans-65" d="M 3597 1894 
L 3597 1613 
L 953 1613 
Q 991 1019 1311 708 
Q 1631 397 2203 397 
Q 2534 397 2845 478 
Q 3156 559 3463 722 
L 3463 178 
Q 3153 47 2828 -22 
Q 2503 -91 2169 -91 
Q 1331 -91 842 396 
Q 353 884 353 1716 
Q 353 2575 817 3079 
Q 1281 3584 2069 3584 
Q 2775 3584 3186 3129 
Q 3597 2675 3597 1894 
z
M 3022 2063 
Q 3016 2534 2758 2815 
Q 2500 3097 2075 3097 
Q 1594 3097 1305 2825 
Q 1016 2553 972 2059 
L 3022 2063 
z
" transform="scale(0.015625)"/>
        <path id="DejaVuSans-73" d="M 2834 3397 
L 2834 2853 
Q 2591 2978 2328 3040 
Q 2066 3103 1784 3103 
Q 1356 3103 1142 2972 
Q 928 2841 928 2578 
Q 928 2378 1081 2264 
Q 1234 2150 1697 2047 
L 1894 2003 
Q 2506 1872 2764 1633 
Q 3022 1394 3022 966 
Q 3022 478 2636 193 
Q 2250 -91 1575 -91 
Q 1294 -91 989 -36 
Q 684 19 347 128 
L 347 722 
Q 666 556 975 473 
Q 1284 391 1588 391 
Q 1994 391 2212 530 
Q 2431 669 2431 922 
Q 2431 1156 2273 1281 
Q 2116 1406 1581 1522 
L 1381 1569 
Q 847 1681 609 1914 
Q 372 2147 372 2553 
Q 372 3047 722 3315 
Q 1072 3584 1716 3584 
Q 2034 3584 2315 3537 
Q 2597 3491 2834 3397 
z
" transform="scale(0.015625)"/>
        <path id="DejaVuSans-63" d="M 3122 3366 
L 3122 2828 
Q 2878 2963 2633 3030 
Q 2388 3097 2138 3097 
Q 1578 3097 1268 2742 
Q 959 2388 959 1747 
Q 959 1106 1268 751 
Q 1578 397 2138 397 
Q 2388 397 2633 464 
Q 2878 531 3122 666 
L 3122 134 
Q 2881 22 2623 -34 
Q 2366 -91 2075 -91 
Q 1284 -91 818 406 
Q 353 903 353 1747 
Q 353 2603 823 3093 
Q 1294 3584 2113 3584 
Q 2378 3584 2631 3529 
Q 2884 3475 3122 3366 
z
" transform="scale(0.015625)"/>
        <path id="DejaVuSans-68" d="M 3513 2113 
L 3513 0 
L 2938 0 
L 2938 2094 
Q 2938 2591 2744 2837 
Q 2550 3084 2163 3084 
Q 1697 3084 1428 2787 
Q 1159 2491 1159 1978 
L 1159 0 
L 581 0 
L 581 4863 
L 1159 4863 
L 1159 2956 
Q 1366 3272 1645 3428 
Q 1925 3584 2291 3584 
Q 2894 3584 3203 3211 
Q 3513 2838 3513 2113 
z
" transform="scale(0.015625)"/>
        <path id="DejaVuSans-69" d="M 603 3500 
L 1178 3500 
L 1178 0 
L 603 0 
L 603 3500 
z
M 603 4863 
L 1178 4863 
L 1178 4134 
L 603 4134 
L 603 4863 
z
" transform="scale(0.015625)"/>
        <path id="DejaVuSans-74" d="M 1172 4494 
L 1172 3500 
L 2356 3500 
L 2356 3053 
L 1172 3053 
L 1172 1153 
Q 1172 725 1289 603 
Q 1406 481 1766 481 
L 2356 481 
L 2356 0 
L 1766 0 
Q 1100 0 847 248 
Q 594 497 594 1153 
L 594 3053 
L 172 3053 
L 172 3500 
L 594 3500 
L 594 4494 
L 1172 4494 
z
" transform="scale(0.015625)"/>
        <path id="DejaVuSans-20" transform="scale(0.015625)"/>
        <path id="DejaVuSans-4d" d="M 628 4666 
L 1569 4666 
L 2759 1491 
L 3956 4666 
L 4897 4666 
L 4897 0 
L 4281 0 
L 4281 4097 
L 3078 897 
L 2444 897 
L 1241 4097 
L 1241 0 
L 628 0 
L 628 4666 
z
" transform="scale(0.015625)"/>
        <path id="DejaVuSans-75" d="M 544 1381 
L 544 3500 
L 1119 3500 
L 1119 1403 
Q 1119 906 1312 657 
Q 1506 409 1894 409 
Q 2359 409 2629 706 
Q 2900 1003 2900 1516 
L 2900 3500 
L 3475 3500 
L 3475 0 
L 2900 0 
L 2900 538 
Q 2691 219 2414 64 
Q 2138 -91 1772 -91 
Q 1169 -91 856 284 
Q 544 659 544 1381 
z
M 1991 3584 
L 1991 3584 
z
" transform="scale(0.015625)"/>
        <path id="DejaVuSans-6d" d="M 3328 2828 
Q 3544 3216 3844 3400 
Q 4144 3584 4550 3584 
Q 5097 3584 5394 3201 
Q 5691 2819 5691 2113 
L 5691 0 
L 5113 0 
L 5113 2094 
Q 5113 2597 4934 2840 
Q 4756 3084 4391 3084 
Q 3944 3084 3684 2787 
Q 3425 2491 3425 1978 
L 3425 0 
L 2847 0 
L 2847 2094 
Q 2847 2600 2669 2842 
Q 2491 3084 2119 3084 
Q 1678 3084 1418 2786 
Q 1159 2488 1159 1978 
L 1159 0 
L 581 0 
L 581 3500 
L 1159 3500 
L 1159 2956 
Q 1356 3278 1631 3431 
Q 1906 3584 2284 3584 
Q 2666 3584 2933 3390 
Q 3200 3197 3328 2828 
z
" transform="scale(0.015625)"/>
        <path id="DejaVuSans-42" d="M 1259 2228 
L 1259 519 
L 2272 519 
Q 2781 519 3026 730 
Q 3272 941 3272 1375 
Q 3272 1813 3026 2020 
Q 2781 2228 2272 2228 
L 1259 2228 
z
M 1259 4147 
L 1259 2741 
L 2194 2741 
Q 2656 2741 2882 2914 
Q 3109 3088 3109 3444 
Q 3109 3797 2882 3972 
Q 2656 4147 2194 4147 
L 1259 4147 
z
M 628 4666 
L 2241 4666 
Q 2963 4666 3353 4366 
Q 3744 4066 3744 3513 
Q 3744 3084 3544 2831 
Q 3344 2578 2956 2516 
Q 3422 2416 3680 2098 
Q 3938 1781 3938 1306 
Q 3938 681 3513 340 
Q 3088 0 2303 0 
L 628 0 
L 628 4666 
z
" transform="scale(0.015625)"/>
       </defs>
       <use xlink:href="#DejaVuSans-47"/>
       <use xlink:href="#DejaVuSans-65" x="77.490234"/>
       <use xlink:href="#DejaVuSans-73" x="139.013672"/>
       <use xlink:href="#DejaVuSans-63" x="191.113281"/>
       <use xlink:href="#DejaVuSans-68" x="246.09375"/>
       <use xlink:href="#DejaVuSans-69" x="309.472656"/>
       <use xlink:href="#DejaVuSans-63" x="337.255859"/>
       <use xlink:href="#DejaVuSans-68" x="392.236328"/>
       <use xlink:href="#DejaVuSans-74" x="455.615234"/>
       <use xlink:href="#DejaVuSans-65" x="494.824219"/>
       <use xlink:href="#DejaVuSans-20" x="556.347656"/>
       <use xlink:href="#DejaVuSans-4d" x="588.134766"/>
       <use xlink:href="#DejaVuSans-75" x="674.414062"/>
       <use xlink:href="#DejaVuSans-73" x="737.792969"/>
       <use xlink:href="#DejaVuSans-65" x="789.892578"/>
       <use xlink:href="#DejaVuSans-75" x="851.416016"/>
       <use xlink:href="#DejaVuSans-6d" x="914.794922"/>
       <use xlink:href="#DejaVuSans-20" x="1012.207031"/>
       <use xlink:href="#DejaVuSans-42" x="1043.994141"/>
       <use xlink:href="#DejaVuSans-75" x="1112.597656"/>
       <use xlink:href="#DejaVuSans-63" x="1175.976562"/>
       <use xlink:href="#DejaVuSans-68" x="1230.957031"/>
      </g>
     </g>
    </g>
    <g id="xtick_2">
     <g id="line2d_2">
      <g>
       <use xlink:href="#m8ed78df298" x="155.341667" y="271.15" style="stroke: #000000; stroke-width: 0.8"/>
      </g>
     </g>
     <g id="text_2">
      <!-- Vorbild -->
      <g transform="translate(158.101042 312.698438) rotate(-90) scale(0.1 -0.1)">
       <defs>
        <path id="DejaVuSans-56" d="M 1831 0 
L 50 4666 
L 709 4666 
L 2188 738 
L 3669 4666 
L 4325 4666 
L 2547 0 
L 1831 0 
z
" transform="scale(0.015625)"/>
        <path id="DejaVuSans-6f" d="M 1959 3097 
Q 1497 3097 1228 2736 
Q 959 2375 959 1747 
Q 959 1119 1226 758 
Q 1494 397 1959 397 
Q 2419 397 2687 759 
Q 2956 1122 2956 1747 
Q 2956 2369 2687 2733 
Q 2419 3097 1959 3097 
z
M 1959 3584 
Q 2709 3584 3137 3096 
Q 3566 2609 3566 1747 
Q 3566 888 3137 398 
Q 2709 -91 1959 -91 
Q 1206 -91 779 398 
Q 353 888 353 1747 
Q 353 2609 779 3096 
Q 1206 3584 1959 3584 
z
" transform="scale(0.015625)"/>
        <path id="DejaVuSans-72" d="M 2631 2963 
Q 2534 3019 2420 3045 
Q 2306 3072 2169 3072 
Q 1681 3072 1420 2755 
Q 1159 2438 1159 1844 
L 1159 0 
L 581 0 
L 581 3500 
L 1159 3500 
L 1159 2956 
Q 1341 3275 1631 3429 
Q 1922 3584 2338 3584 
Q 2397 3584 2469 3576 
Q 2541 3569 2628 3553 
L 2631 2963 
z
" transform="scale(0.015625)"/>
        <path id="DejaVuSans-62" d="M 3116 1747 
Q 3116 2381 2855 2742 
Q 2594 3103 2138 3103 
Q 1681 3103 1420 2742 
Q 1159 2381 1159 1747 
Q 1159 1113 1420 752 
Q 1681 391 2138 391 
Q 2594 391 2855 752 
Q 3116 1113 3116 1747 
z
M 1159 2969 
Q 1341 3281 1617 3432 
Q 1894 3584 2278 3584 
Q 2916 3584 3314 3078 
Q 3713 2572 3713 1747 
Q 3713 922 3314 415 
Q 2916 -91 2278 -91 
Q 1894 -91 1617 61 
Q 1341 213 1159 525 
L 1159 0 
L 581 0 
L 581 4863 
L 1159 4863 
L 1159 2969 
z
" transform="scale(0.015625)"/>
        <path id="DejaVuSans-6c" d="M 603 4863 
L 1178 4863 
L 1178 0 
L 603 0 
L 603 4863 
z
" transform="scale(0.015625)"/>
        <path id="DejaVuSans-64" d="M 2906 2969 
L 2906 4863 
L 3481 4863 
L 3481 0 
L 2906 0 
L 2906 525 
Q 2725 213 2448 61 
Q 2172 -91 1784 -91 
Q 1150 -91 751 415 
Q 353 922 353 1747 
Q 353 2572 751 3078 
Q 1150 3584 1784 3584 
Q 2172 3584 2448 3432 
Q 2725 3281 2906 2969 
z
M 947 1747 
Q 947 1113 1208 752 
Q 1469 391 1925 391 
Q 2381 391 2643 752 
Q 2906 1113 2906 1747 
Q 2906 2381 2643 2742 
Q 2381 3103 1925 3103 
Q 1469 3103 1208 2742 
Q 947 2381 947 1747 
z
" transform="scale(0.015625)"/>
       </defs>
       <use xlink:href="#DejaVuSans-56"/>
       <use xlink:href="#DejaVuSans-6f" x="60.658203"/>
       <use xlink:href="#DejaVuSans-72" x="121.839844"/>
       <use xlink:href="#DejaVuSans-62" x="162.953125"/>
       <use xlink:href="#DejaVuSans-69" x="226.429688"/>
       <use xlink:href="#DejaVuSans-6c" x="254.212891"/>
       <use xlink:href="#DejaVuSans-64" x="281.996094"/>
      </g>
     </g>
    </g>
    <g id="xtick_3">
     <g id="line2d_3">
      <g>
       <use xlink:href="#m8ed78df298" x="229.189444" y="271.15" style="stroke: #000000; stroke-width: 0.8"/>
      </g>
     </g>
     <g id="text_3">
      <!-- Frieden -->
      <g transform="translate(231.948819 315.057813) rotate(-90) scale(0.1 -0.1)">
       <defs>
        <path id="DejaVuSans-46" d="M 628 4666 
L 3309 4666 
L 3309 4134 
L 1259 4134 
L 1259 2759 
L 3109 2759 
L 3109 2228 
L 1259 2228 
L 1259 0 
L 628 0 
L 628 4666 
z
" transform="scale(0.015625)"/>
        <path id="DejaVuSans-6e" d="M 3513 2113 
L 3513 0 
L 2938 0 
L 2938 2094 
Q 2938 2591 2744 2837 
Q 2550 3084 2163 3084 
Q 1697 3084 1428 2787 
Q 1159 2491 1159 1978 
L 1159 0 
L 581 0 
L 581 3500 
L 1159 3500 
L 1159 2956 
Q 1366 3272 1645 3428 
Q 1925 3584 2291 3584 
Q 2894 3584 3203 3211 
Q 3513 2838 3513 2113 
z
" transform="scale(0.015625)"/>
       </defs>
       <use xlink:href="#DejaVuSans-46"/>
       <use xlink:href="#DejaVuSans-72" x="50.269531"/>
       <use xlink:href="#DejaVuSans-69" x="91.382812"/>
       <use xlink:href="#DejaVuSans-65" x="119.166016"/>
       <use xlink:href="#DejaVuSans-64" x="180.689453"/>
       <use xlink:href="#DejaVuSans-65" x="244.166016"/>
       <use xlink:href="#DejaVuSans-6e" x="305.689453"/>
      </g>
     </g>
    </g>
    <g id="xtick_4">
     <g id="line2d_4">
      <g>
       <use xlink:href="#m8ed78df298" x="303.037222" y="271.15" style="stroke: #000000; stroke-width: 0.8"/>
      </g>
     </g>
     <g id="text_4">
      <!-- Buch Digitalisierung -->
      <g transform="translate(305.796597 378.846875) rotate(-90) scale(0.1 -0.1)">
       <defs>
        <path id="DejaVuSans-44" d="M 1259 4147 
L 1259 519 
L 2022 519 
Q 2988 519 3436 956 
Q 3884 1394 3884 2338 
Q 3884 3275 3436 3711 
Q 2988 4147 2022 4147 
L 1259 4147 
z
M 628 4666 
L 1925 4666 
Q 3281 4666 3915 4102 
Q 4550 3538 4550 2338 
Q 4550 1131 3912 565 
Q 3275 0 1925 0 
L 628 0 
L 628 4666 
z
" transform="scale(0.015625)"/>
        <path id="DejaVuSans-67" d="M 2906 1791 
Q 2906 2416 2648 2759 
Q 2391 3103 1925 3103 
Q 1463 3103 1205 2759 
Q 947 2416 947 1791 
Q 947 1169 1205 825 
Q 1463 481 1925 481 
Q 2391 481 2648 825 
Q 2906 1169 2906 1791 
z
M 3481 434 
Q 3481 -459 3084 -895 
Q 2688 -1331 1869 -1331 
Q 1566 -1331 1297 -1286 
Q 1028 -1241 775 -1147 
L 775 -588 
Q 1028 -725 1275 -790 
Q 1522 -856 1778 -856 
Q 2344 -856 2625 -561 
Q 2906 -266 2906 331 
L 2906 616 
Q 2728 306 2450 153 
Q 2172 0 1784 0 
Q 1141 0 747 490 
Q 353 981 353 1791 
Q 353 2603 747 3093 
Q 1141 3584 1784 3584 
Q 2172 3584 2450 3431 
Q 2728 3278 2906 2969 
L 2906 3500 
L 3481 3500 
L 3481 434 
z
" transform="scale(0.015625)"/>
        <path id="DejaVuSans-61" d="M 2194 1759 
Q 1497 1759 1228 1600 
Q 959 1441 959 1056 
Q 959 750 1161 570 
Q 1363 391 1709 391 
Q 2188 391 2477 730 
Q 2766 1069 2766 1631 
L 2766 1759 
L 2194 1759 
z
M 3341 1997 
L 3341 0 
L 2766 0 
L 2766 531 
Q 2569 213 2275 61 
Q 1981 -91 1556 -91 
Q 1019 -91 701 211 
Q 384 513 384 1019 
Q 384 1609 779 1909 
Q 1175 2209 1959 2209 
L 2766 2209 
L 2766 2266 
Q 2766 2663 2505 2880 
Q 2244 3097 1772 3097 
Q 1472 3097 1187 3025 
Q 903 2953 641 2809 
L 641 3341 
Q 956 3463 1253 3523 
Q 1550 3584 1831 3584 
Q 2591 3584 2966 3190 
Q 3341 2797 3341 1997 
z
" transform="scale(0.015625)"/>
       </defs>
       <use xlink:href="#DejaVuSans-42"/>
       <use xlink:href="#DejaVuSans-75" x="68.603516"/>
       <use xlink:href="#DejaVuSans-63" x="131.982422"/>
       <use xlink:href="#DejaVuSans-68" x="186.962891"/>
       <use xlink:href="#DejaVuSans-20" x="250.341797"/>
       <use xlink:href="#DejaVuSans-44" x="282.128906"/>
       <use xlink:href="#DejaVuSans-69" x="359.130859"/>
       <use xlink:href="#DejaVuSans-67" x="386.914062"/>
       <use xlink:href="#DejaVuSans-69" x="450.390625"/>
       <use xlink:href="#DejaVuSans-74" x="478.173828"/>
       <use xlink:href="#DejaVuSans-61" x="517.382812"/>
       <use xlink:href="#DejaVuSans-6c" x="578.662109"/>
       <use xlink:href="#DejaVuSans-69" x="606.445312"/>
       <use xlink:href="#DejaVuSans-73" x="634.228516"/>
       <use xlink:href="#DejaVuSans-69" x="686.328125"/>
       <use xlink:href="#DejaVuSans-65" x="714.111328"/>
       <use xlink:href="#DejaVuSans-72" x="775.634766"/>
       <use xlink:href="#DejaVuSans-75" x="816.748047"/>
       <use xlink:href="#DejaVuSans-6e" x="880.126953"/>
       <use xlink:href="#DejaVuSans-67" x="943.505859"/>
      </g>
     </g>
    </g>
    <g id="xtick_5">
     <g id="line2d_5">
      <g>
       <use xlink:href="#m8ed78df298" x="376.885" y="271.15" style="stroke: #000000; stroke-width: 0.8"/>
      </g>
     </g>
     <g id="text_5">
      <!-- kinderfreundlich -->
      <g transform="translate(379.644375 359.64375) rotate(-90) scale(0.1 -0.1)">
       <defs>
        <path id="DejaVuSans-6b" d="M 581 4863 
L 1159 4863 
L 1159 1991 
L 2875 3500 
L 3609 3500 
L 1753 1863 
L 3688 0 
L 2938 0 
L 1159 1709 
L 1159 0 
L 581 0 
L 581 4863 
z
" transform="scale(0.015625)"/>
        <path id="DejaVuSans-66" d="M 2375 4863 
L 2375 4384 
L 1825 4384 
Q 1516 4384 1395 4259 
Q 1275 4134 1275 3809 
L 1275 3500 
L 2222 3500 
L 2222 3053 
L 1275 3053 
L 1275 0 
L 697 0 
L 697 3053 
L 147 3053 
L 147 3500 
L 697 3500 
L 697 3744 
Q 697 4328 969 4595 
Q 1241 4863 1831 4863 
L 2375 4863 
z
" transform="scale(0.015625)"/>
       </defs>
       <use xlink:href="#DejaVuSans-6b"/>
       <use xlink:href="#DejaVuSans-69" x="57.910156"/>
       <use xlink:href="#DejaVuSans-6e" x="85.693359"/>
       <use xlink:href="#DejaVuSans-64" x="149.072266"/>
       <use xlink:href="#DejaVuSans-65" x="212.548828"/>
       <use xlink:href="#DejaVuSans-72" x="274.072266"/>
       <use xlink:href="#DejaVuSans-66" x="315.185547"/>
       <use xlink:href="#DejaVuSans-72" x="350.390625"/>
       <use xlink:href="#DejaVuSans-65" x="389.253906"/>
       <use xlink:href="#DejaVuSans-75" x="450.777344"/>
       <use xlink:href="#DejaVuSans-6e" x="514.15625"/>
       <use xlink:href="#DejaVuSans-64" x="577.535156"/>
       <use xlink:href="#DejaVuSans-6c" x="641.011719"/>
       <use xlink:href="#DejaVuSans-69" x="668.794922"/>
       <use xlink:href="#DejaVuSans-63" x="696.578125"/>
       <use xlink:href="#DejaVuSans-68" x="751.558594"/>
      </g>
     </g>
    </g>
    <g id="xtick_6">
     <g id="line2d_6">
      <g>
       <use xlink:href="#m8ed78df298" x="450.732778" y="271.15" style="stroke: #000000; stroke-width: 0.8"/>
      </g>
     </g>
     <g id="text_6">
      <!-- Bestand Digitalisierung -->
      <g transform="translate(453.492153 394.770313) rotate(-90) scale(0.1 -0.1)">
       <use xlink:href="#DejaVuSans-42"/>
       <use xlink:href="#DejaVuSans-65" x="68.603516"/>
       <use xlink:href="#DejaVuSans-73" x="130.126953"/>
       <use xlink:href="#DejaVuSans-74" x="182.226562"/>
       <use xlink:href="#DejaVuSans-61" x="221.435547"/>
       <use xlink:href="#DejaVuSans-6e" x="282.714844"/>
       <use xlink:href="#DejaVuSans-64" x="346.09375"/>
       <use xlink:href="#DejaVuSans-20" x="409.570312"/>
       <use xlink:href="#DejaVuSans-44" x="441.357422"/>
       <use xlink:href="#DejaVuSans-69" x="518.359375"/>
       <use xlink:href="#DejaVuSans-67" x="546.142578"/>
       <use xlink:href="#DejaVuSans-69" x="609.619141"/>
       <use xlink:href="#DejaVuSans-74" x="637.402344"/>
       <use xlink:href="#DejaVuSans-61" x="676.611328"/>
       <use xlink:href="#DejaVuSans-6c" x="737.890625"/>
       <use xlink:href="#DejaVuSans-69" x="765.673828"/>
       <use xlink:href="#DejaVuSans-73" x="793.457031"/>
       <use xlink:href="#DejaVuSans-69" x="845.556641"/>
       <use xlink:href="#DejaVuSans-65" x="873.339844"/>
       <use xlink:href="#DejaVuSans-72" x="934.863281"/>
       <use xlink:href="#DejaVuSans-75" x="975.976562"/>
       <use xlink:href="#DejaVuSans-6e" x="1039.355469"/>
       <use xlink:href="#DejaVuSans-67" x="1102.734375"/>
      </g>
     </g>
    </g>
    <g id="xtick_7">
     <g id="line2d_7">
      <g>
       <use xlink:href="#m8ed78df298" x="524.580556" y="271.15" style="stroke: #000000; stroke-width: 0.8"/>
      </g>
     </g>
     <g id="text_7">
      <!-- Erlebnis zum Anfassen -->
      <g transform="translate(527.339931 391.603125) rotate(-90) scale(0.1 -0.1)">
       <defs>
        <path id="DejaVuSans-45" d="M 628 4666 
L 3578 4666 
L 3578 4134 
L 1259 4134 
L 1259 2753 
L 3481 2753 
L 3481 2222 
L 1259 2222 
L 1259 531 
L 3634 531 
L 3634 0 
L 628 0 
L 628 4666 
z
" transform="scale(0.015625)"/>
        <path id="DejaVuSans-7a" d="M 353 3500 
L 3084 3500 
L 3084 2975 
L 922 459 
L 3084 459 
L 3084 0 
L 275 0 
L 275 525 
L 2438 3041 
L 353 3041 
L 353 3500 
z
" transform="scale(0.015625)"/>
        <path id="DejaVuSans-41" d="M 2188 4044 
L 1331 1722 
L 3047 1722 
L 2188 4044 
z
M 1831 4666 
L 2547 4666 
L 4325 0 
L 3669 0 
L 3244 1197 
L 1141 1197 
L 716 0 
L 50 0 
L 1831 4666 
z
" transform="scale(0.015625)"/>
       </defs>
       <use xlink:href="#DejaVuSans-45"/>
       <use xlink:href="#DejaVuSans-72" x="63.183594"/>
       <use xlink:href="#DejaVuSans-6c" x="104.296875"/>
       <use xlink:href="#DejaVuSans-65" x="132.080078"/>
       <use xlink:href="#DejaVuSans-62" x="193.603516"/>
       <use xlink:href="#DejaVuSans-6e" x="257.080078"/>
       <use xlink:href="#DejaVuSans-69" x="320.458984"/>
       <use xlink:href="#DejaVuSans-73" x="348.242188"/>
       <use xlink:href="#DejaVuSans-20" x="400.341797"/>
       <use xlink:href="#DejaVuSans-7a" x="432.128906"/>
       <use xlink:href="#DejaVuSans-75" x="484.619141"/>
       <use xlink:href="#DejaVuSans-6d" x="547.998047"/>
       <use xlink:href="#DejaVuSans-20" x="645.410156"/>
       <use xlink:href="#DejaVuSans-41" x="677.197266"/>
       <use xlink:href="#DejaVuSans-6e" x="745.605469"/>
       <use xlink:href="#DejaVuSans-66" x="808.984375"/>
       <use xlink:href="#DejaVuSans-61" x="844.189453"/>
       <use xlink:href="#DejaVuSans-73" x="905.46875"/>
       <use xlink:href="#DejaVuSans-73" x="957.568359"/>
       <use xlink:href="#DejaVuSans-65" x="1009.667969"/>
       <use xlink:href="#DejaVuSans-6e" x="1071.191406"/>
      </g>
     </g>
    </g>
    <g id="xtick_8">
     <g id="line2d_8">
      <g>
       <use xlink:href="#m8ed78df298" x="598.428333" y="271.15" style="stroke: #000000; stroke-width: 0.8"/>
      </g>
     </g>
     <g id="text_8">
      <!-- Gedächtnis Wissensnetz -->
      <g transform="translate(601.187708 400.00625) rotate(-90) scale(0.1 -0.1)">
       <defs>
        <path id="DejaVuSans-e4" d="M 2194 1759 
Q 1497 1759 1228 1600 
Q 959 1441 959 1056 
Q 959 750 1161 570 
Q 1363 391 1709 391 
Q 2188 391 2477 730 
Q 2766 1069 2766 1631 
L 2766 1759 
L 2194 1759 
z
M 3341 1997 
L 3341 0 
L 2766 0 
L 2766 531 
Q 2569 213 2275 61 
Q 1981 -91 1556 -91 
Q 1019 -91 701 211 
Q 384 513 384 1019 
Q 384 1609 779 1909 
Q 1175 2209 1959 2209 
L 2766 2209 
L 2766 2266 
Q 2766 2663 2505 2880 
Q 2244 3097 1772 3097 
Q 1472 3097 1187 3025 
Q 903 2953 641 2809 
L 641 3341 
Q 956 3463 1253 3523 
Q 1550 3584 1831 3584 
Q 2591 3584 2966 3190 
Q 3341 2797 3341 1997 
z
M 2150 4850 
L 2784 4850 
L 2784 4219 
L 2150 4219 
L 2150 4850 
z
M 928 4850 
L 1562 4850 
L 1562 4219 
L 928 4219 
L 928 4850 
z
" transform="scale(0.015625)"/>
        <path id="DejaVuSans-57" d="M 213 4666 
L 850 4666 
L 1831 722 
L 2809 4666 
L 3519 4666 
L 4500 722 
L 5478 4666 
L 6119 4666 
L 4947 0 
L 4153 0 
L 3169 4050 
L 2175 0 
L 1381 0 
L 213 4666 
z
" transform="scale(0.015625)"/>
       </defs>
       <use xlink:href="#DejaVuSans-47"/>
       <use xlink:href="#DejaVuSans-65" x="77.490234"/>
       <use xlink:href="#DejaVuSans-64" x="139.013672"/>
       <use xlink:href="#DejaVuSans-e4" x="202.490234"/>
       <use xlink:href="#DejaVuSans-63" x="263.769531"/>
       <use xlink:href="#DejaVuSans-68" x="318.75"/>
       <use xlink:href="#DejaVuSans-74" x="382.128906"/>
       <use xlink:href="#DejaVuSans-6e" x="421.337891"/>
       <use xlink:href="#DejaVuSans-69" x="484.716797"/>
       <use xlink:href="#DejaVuSans-73" x="512.5"/>
       <use xlink:href="#DejaVuSans-20" x="564.599609"/>
       <use xlink:href="#DejaVuSans-57" x="596.386719"/>
       <use xlink:href="#DejaVuSans-69" x="693.013672"/>
       <use xlink:href="#DejaVuSans-73" x="720.796875"/>
       <use xlink:href="#DejaVuSans-73" x="772.896484"/>
       <use xlink:href="#DejaVuSans-65" x="824.996094"/>
       <use xlink:href="#DejaVuSans-6e" x="886.519531"/>
       <use xlink:href="#DejaVuSans-73" x="949.898438"/>
       <use xlink:href="#DejaVuSans-6e" x="1001.998047"/>
       <use xlink:href="#DejaVuSans-65" x="1065.376953"/>
       <use xlink:href="#DejaVuSans-74" x="1126.900391"/>
       <use xlink:href="#DejaVuSans-7a" x="1166.109375"/>
      </g>
     </g>
    </g>
    <g id="xtick_9">
     <g id="line2d_9">
      <g>
       <use xlink:href="#m8ed78df298" x="672.276111" y="271.15" style="stroke: #000000; stroke-width: 0.8"/>
      </g>
     </g>
     <g id="text_9">
      <!-- Begegnungsstätte -->
      <g transform="translate(675.035486 369.835938) rotate(-90) scale(0.1 -0.1)">
       <use xlink:href="#DejaVuSans-42"/>
       <use xlink:href="#DejaVuSans-65" x="68.603516"/>
       <use xlink:href="#DejaVuSans-67" x="130.126953"/>
       <use xlink:href="#DejaVuSans-65" x="193.603516"/>
       <use xlink:href="#DejaVuSans-67" x="255.126953"/>
       <use xlink:href="#DejaVuSans-6e" x="318.603516"/>
       <use xlink:href="#DejaVuSans-75" x="381.982422"/>
       <use xlink:href="#DejaVuSans-6e" x="445.361328"/>
       <use xlink:href="#DejaVuSans-67" x="508.740234"/>
       <use xlink:href="#DejaVuSans-73" x="572.216797"/>
       <use xlink:href="#DejaVuSans-73" x="624.316406"/>
       <use xlink:href="#DejaVuSans-74" x="676.416016"/>
       <use xlink:href="#DejaVuSans-e4" x="715.625"/>
       <use xlink:href="#DejaVuSans-74" x="776.904297"/>
       <use xlink:href="#DejaVuSans-74" x="816.113281"/>
       <use xlink:href="#DejaVuSans-65" x="855.322266"/>
      </g>
     </g>
    </g>
    <g id="text_10">
     <!-- Topic Label -->
     <g transform="translate(349.230312 419.179688) scale(0.1 -0.1)">
      <defs>
       <path id="DejaVuSans-54" d="M -19 4666 
L 3928 4666 
L 3928 4134 
L 2272 4134 
L 2272 0 
L 1638 0 
L 1638 4134 
L -19 4134 
L -19 4666 
z
" transform="scale(0.015625)"/>
       <path id="DejaVuSans-70" d="M 1159 525 
L 1159 -1331 
L 581 -1331 
L 581 3500 
L 1159 3500 
L 1159 2969 
Q 1341 3281 1617 3432 
Q 1894 3584 2278 3584 
Q 2916 3584 3314 3078 
Q 3713 2572 3713 1747 
Q 3713 922 3314 415 
Q 2916 -91 2278 -91 
Q 1894 -91 1617 61 
Q 1341 213 1159 525 
z
M 3116 1747 
Q 3116 2381 2855 2742 
Q 2594 3103 2138 3103 
Q 1681 3103 1420 2742 
Q 1159 2381 1159 1747 
Q 1159 1113 1420 752 
Q 1681 391 2138 391 
Q 2594 391 2855 752 
Q 3116 1113 3116 1747 
z
" transform="scale(0.015625)"/>
       <path id="DejaVuSans-4c" d="M 628 4666 
L 1259 4666 
L 1259 531 
L 3531 531 
L 3531 0 
L 628 0 
L 628 4666 
z
" transform="scale(0.015625)"/>
      </defs>
      <use xlink:href="#DejaVuSans-54"/>
      <use xlink:href="#DejaVuSans-6f" x="44.083984"/>
      <use xlink:href="#DejaVuSans-70" x="105.265625"/>
      <use xlink:href="#DejaVuSans-69" x="168.742188"/>
      <use xlink:href="#DejaVuSans-63" x="196.525391"/>
      <use xlink:href="#DejaVuSans-20" x="251.505859"/>
      <use xlink:href="#DejaVuSans-4c" x="283.292969"/>
      <use xlink:href="#DejaVuSans-61" x="339.005859"/>
      <use xlink:href="#DejaVuSans-62" x="400.285156"/>
      <use xlink:href="#DejaVuSans-65" x="463.761719"/>
      <use xlink:href="#DejaVuSans-6c" x="525.285156"/>
     </g>
    </g>
   </g>
   <g id="matplotlib.axis_2">
    <g id="ytick_1">
     <g id="line2d_10">
      <defs>
       <path id="mb77327d4fb" d="M 0 0 
L -3.5 0 
" style="stroke: #000000; stroke-width: 0.8"/>
      </defs>
      <g>
       <use xlink:href="#mb77327d4fb" x="44.57" y="271.15" style="stroke: #000000; stroke-width: 0.8"/>
      </g>
     </g>
     <g id="text_11">
      <!-- 0 -->
      <g transform="translate(31.2075 274.949219) scale(0.1 -0.1)">
       <defs>
        <path id="DejaVuSans-30" d="M 2034 4250 
Q 1547 4250 1301 3770 
Q 1056 3291 1056 2328 
Q 1056 1369 1301 889 
Q 1547 409 2034 409 
Q 2525 409 2770 889 
Q 3016 1369 3016 2328 
Q 3016 3291 2770 3770 
Q 2525 4250 2034 4250 
z
M 2034 4750 
Q 2819 4750 3233 4129 
Q 3647 3509 3647 2328 
Q 3647 1150 3233 529 
Q 2819 -91 2034 -91 
Q 1250 -91 836 529 
Q 422 1150 422 2328 
Q 422 3509 836 4129 
Q 1250 4750 2034 4750 
z
" transform="scale(0.015625)"/>
       </defs>
       <use xlink:href="#DejaVuSans-30"/>
      </g>
     </g>
    </g>
    <g id="ytick_2">
     <g id="line2d_11">
      <g>
       <use xlink:href="#mb77327d4fb" x="44.57" y="226.411905" style="stroke: #000000; stroke-width: 0.8"/>
      </g>
     </g>
     <g id="text_12">
      <!-- 5 -->
      <g transform="translate(31.2075 230.211124) scale(0.1 -0.1)">
       <defs>
        <path id="DejaVuSans-35" d="M 691 4666 
L 3169 4666 
L 3169 4134 
L 1269 4134 
L 1269 2991 
Q 1406 3038 1543 3061 
Q 1681 3084 1819 3084 
Q 2600 3084 3056 2656 
Q 3513 2228 3513 1497 
Q 3513 744 3044 326 
Q 2575 -91 1722 -91 
Q 1428 -91 1123 -41 
Q 819 9 494 109 
L 494 744 
Q 775 591 1075 516 
Q 1375 441 1709 441 
Q 2250 441 2565 725 
Q 2881 1009 2881 1497 
Q 2881 1984 2565 2268 
Q 2250 2553 1709 2553 
Q 1456 2553 1204 2497 
Q 953 2441 691 2322 
L 691 4666 
z
" transform="scale(0.015625)"/>
       </defs>
       <use xlink:href="#DejaVuSans-35"/>
      </g>
     </g>
    </g>
    <g id="ytick_3">
     <g id="line2d_12">
      <g>
       <use xlink:href="#mb77327d4fb" x="44.57" y="181.67381" style="stroke: #000000; stroke-width: 0.8"/>
      </g>
     </g>
     <g id="text_13">
      <!-- 10 -->
      <g transform="translate(24.845 185.473028) scale(0.1 -0.1)">
       <defs>
        <path id="DejaVuSans-31" d="M 794 531 
L 1825 531 
L 1825 4091 
L 703 3866 
L 703 4441 
L 1819 4666 
L 2450 4666 
L 2450 531 
L 3481 531 
L 3481 0 
L 794 0 
L 794 531 
z
" transform="scale(0.015625)"/>
       </defs>
       <use xlink:href="#DejaVuSans-31"/>
       <use xlink:href="#DejaVuSans-30" x="63.623047"/>
      </g>
     </g>
    </g>
    <g id="ytick_4">
     <g id="line2d_13">
      <g>
       <use xlink:href="#mb77327d4fb" x="44.57" y="136.935714" style="stroke: #000000; stroke-width: 0.8"/>
      </g>
     </g>
     <g id="text_14">
      <!-- 15 -->
      <g transform="translate(24.845 140.734933) scale(0.1 -0.1)">
       <use xlink:href="#DejaVuSans-31"/>
       <use xlink:href="#DejaVuSans-35" x="63.623047"/>
      </g>
     </g>
    </g>
    <g id="ytick_5">
     <g id="line2d_14">
      <g>
       <use xlink:href="#mb77327d4fb" x="44.57" y="92.197619" style="stroke: #000000; stroke-width: 0.8"/>
      </g>
     </g>
     <g id="text_15">
      <!-- 20 -->
      <g transform="translate(24.845 95.996838) scale(0.1 -0.1)">
       <defs>
        <path id="DejaVuSans-32" d="M 1228 531 
L 3431 531 
L 3431 0 
L 469 0 
L 469 531 
Q 828 903 1448 1529 
Q 2069 2156 2228 2338 
Q 2531 2678 2651 2914 
Q 2772 3150 2772 3378 
Q 2772 3750 2511 3984 
Q 2250 4219 1831 4219 
Q 1534 4219 1204 4116 
Q 875 4013 500 3803 
L 500 4441 
Q 881 4594 1212 4672 
Q 1544 4750 1819 4750 
Q 2544 4750 2975 4387 
Q 3406 4025 3406 3419 
Q 3406 3131 3298 2873 
Q 3191 2616 2906 2266 
Q 2828 2175 2409 1742 
Q 1991 1309 1228 531 
z
" transform="scale(0.015625)"/>
       </defs>
       <use xlink:href="#DejaVuSans-32"/>
       <use xlink:href="#DejaVuSans-30" x="63.623047"/>
      </g>
     </g>
    </g>
    <g id="ytick_6">
     <g id="line2d_15">
      <g>
       <use xlink:href="#mb77327d4fb" x="44.57" y="47.459524" style="stroke: #000000; stroke-width: 0.8"/>
      </g>
     </g>
     <g id="text_16">
      <!-- 25 -->
      <g transform="translate(24.845 51.258743) scale(0.1 -0.1)">
       <use xlink:href="#DejaVuSans-32"/>
       <use xlink:href="#DejaVuSans-35" x="63.623047"/>
      </g>
     </g>
    </g>
    <g id="text_17">
     <!-- Count -->
     <g transform="translate(18.765312 163.863437) rotate(-90) scale(0.1 -0.1)">
      <defs>
       <path id="DejaVuSans-43" d="M 4122 4306 
L 4122 3641 
Q 3803 3938 3442 4084 
Q 3081 4231 2675 4231 
Q 1875 4231 1450 3742 
Q 1025 3253 1025 2328 
Q 1025 1406 1450 917 
Q 1875 428 2675 428 
Q 3081 428 3442 575 
Q 3803 722 4122 1019 
L 4122 359 
Q 3791 134 3420 21 
Q 3050 -91 2638 -91 
Q 1578 -91 968 557 
Q 359 1206 359 2328 
Q 359 3453 968 4101 
Q 1578 4750 2638 4750 
Q 3056 4750 3426 4639 
Q 3797 4528 4122 4306 
z
" transform="scale(0.015625)"/>
      </defs>
      <use xlink:href="#DejaVuSans-43"/>
      <use xlink:href="#DejaVuSans-6f" x="69.824219"/>
      <use xlink:href="#DejaVuSans-75" x="131.005859"/>
      <use xlink:href="#DejaVuSans-6e" x="194.384766"/>
      <use xlink:href="#DejaVuSans-74" x="257.763672"/>
     </g>
    </g>
   </g>
   <g id="patch_12">
    <path d="M 44.57 271.15 
L 44.57 26.88 
" style="fill: none; stroke: #000000; stroke-width: 0.8; stroke-linejoin: miter; stroke-linecap: square"/>
   </g>
   <g id="patch_13">
    <path d="M 709.2 271.15 
L 709.2 26.88 
" style="fill: none; stroke: #000000; stroke-width: 0.8; stroke-linejoin: miter; stroke-linecap: square"/>
   </g>
   <g id="patch_14">
    <path d="M 44.57 271.15 
L 709.2 271.15 
" style="fill: none; stroke: #000000; stroke-width: 0.8; stroke-linejoin: miter; stroke-linecap: square"/>
   </g>
   <g id="patch_15">
    <path d="M 44.57 26.88 
L 709.2 26.88 
" style="fill: none; stroke: #000000; stroke-width: 0.8; stroke-linejoin: miter; stroke-linecap: square"/>
   </g>
   <g id="text_18">
    <!-- Topic Label Distribution -->
    <g transform="translate(306.79 20.88) scale(0.12 -0.12)">
     <use xlink:href="#DejaVuSans-54"/>
     <use xlink:href="#DejaVuSans-6f" x="44.083984"/>
     <use xlink:href="#DejaVuSans-70" x="105.265625"/>
     <use xlink:href="#DejaVuSans-69" x="168.742188"/>
     <use xlink:href="#DejaVuSans-63" x="196.525391"/>
     <use xlink:href="#DejaVuSans-20" x="251.505859"/>
     <use xlink:href="#DejaVuSans-4c" x="283.292969"/>
     <use xlink:href="#DejaVuSans-61" x="339.005859"/>
     <use xlink:href="#DejaVuSans-62" x="400.285156"/>
     <use xlink:href="#DejaVuSans-65" x="463.761719"/>
     <use xlink:href="#DejaVuSans-6c" x="525.285156"/>
     <use xlink:href="#DejaVuSans-20" x="553.068359"/>
     <use xlink:href="#DejaVuSans-44" x="584.855469"/>
     <use xlink:href="#DejaVuSans-69" x="661.857422"/>
     <use xlink:href="#DejaVuSans-73" x="689.640625"/>
     <use xlink:href="#DejaVuSans-74" x="741.740234"/>
     <use xlink:href="#DejaVuSans-72" x="780.949219"/>
     <use xlink:href="#DejaVuSans-69" x="822.0625"/>
     <use xlink:href="#DejaVuSans-62" x="849.845703"/>
     <use xlink:href="#DejaVuSans-75" x="913.322266"/>
     <use xlink:href="#DejaVuSans-74" x="976.701172"/>
     <use xlink:href="#DejaVuSans-69" x="1015.910156"/>
     <use xlink:href="#DejaVuSans-6f" x="1043.693359"/>
     <use xlink:href="#DejaVuSans-6e" x="1104.875"/>
    </g>
   </g>
  </g>
 </g>
 <defs>
  <clipPath id="p1e9c1371fd">
   <rect x="44.57" y="26.88" width="664.63" height="244.27"/>
  </clipPath>
 </defs>
</svg>
